<svg height="100%" width="100%" id="svg" viewBox="0 0 1440 700" xmlns="http://www.w3.org/2000/svg" class="transition duration-300 ease-in-out delay-150"><path d="M 0,700 C 0,700 0,175 0,175 C 71.15641025641025,155.4205128205128 142.3128205128205,135.84102564102562 217,131 C 291.6871794871795,126.15897435897436 369.9051282051282,136.0564102564103 457,163 C 544.0948717948718,189.9435897435897 640.0666666666667,233.93333333333334 728,234 C 815.9333333333333,234.06666666666666 895.8282051282051,190.2102564102564 981,162 C 1066.1717948717949,133.7897435897436 1156.6205128205129,121.22564102564104 1234,126 C 1311.3794871794871,130.77435897435896 1375.6897435897436,152.88717948717948 1440,175 C 1440,175 1440,700 1440,700 Z" stroke="none" stroke-width="0" fill="#ab9af466" class="transition-all duration-300 ease-in-out delay-150"></path><path d="M 0,700 C 0,700 0,350 0,350 C 102.54871794871795,366.16410256410256 205.0974358974359,382.3282051282052 277,377 C 348.9025641025641,371.6717948717948 390.1589743589743,344.85128205128206 465,326 C 539.8410256410257,307.14871794871794 648.2666666666667,296.2666666666667 741,313 C 833.7333333333333,329.7333333333333 910.7743589743591,374.0820512820513 988,369 C 1065.225641025641,363.9179487179487 1142.6358974358975,309.4051282051282 1218,298 C 1293.3641025641025,286.5948717948718 1366.6820512820514,318.2974358974359 1440,350 C 1440,350 1440,700 1440,700 Z" stroke="none" stroke-width="0" fill="#ab9af488" class="transition-all duration-300 ease-in-out delay-150"></path><path d="M 0,700 C 0,700 0,525 0,525 C 87.61282051282049,549.6384615384616 175.22564102564098,574.276923076923 247,576 C 318.774358974359,577.723076923077 374.7102564102564,556.5307692307692 445,539 C 515.2897435897436,521.4692307692308 599.9333333333334,507.6 693,503 C 786.0666666666666,498.4 887.5564102564101,503.06923076923067 971,519 C 1054.4435897435899,534.9307692307693 1119.8410256410257,562.123076923077 1195,565 C 1270.1589743589743,567.876923076923 1355.0794871794872,546.4384615384615 1440,525 C 1440,525 1440,700 1440,700 Z" stroke="none" stroke-width="0" fill="#ab9af4ff" class="transition-all duration-300 ease-in-out delay-150"></path></svg>