<svg height="100%" width="100%" id="svg" viewBox="0 0 1440 600" xmlns="http://www.w3.org/2000/svg" class="transition duration-300 ease-in-out delay-150"><path d="M 0,600 C 0,600 0,150 0,150 C 109.14832535885168,116.99521531100478 218.29665071770336,83.99043062200958 326,95 C 433.70334928229664,106.00956937799042 539.9617224880383,161.03349282296648 615,184 C 690.0382775119617,206.96650717703352 733.8564593301435,197.8755980861244 832,182 C 930.1435406698565,166.1244019138756 1082.6124401913876,143.4641148325359 1193,137 C 1303.3875598086124,130.5358851674641 1371.6937799043062,140.26794258373207 1440,150 C 1440,150 1440,600 1440,600 Z" stroke="none" stroke-width="0" fill="#ff7f5066" class="transition-all duration-300 ease-in-out delay-150"></path><path d="M 0,600 C 0,600 0,300 0,300 C 70.04784688995213,284.5645933014354 140.09569377990425,269.12918660287085 234,276 C 327.90430622009575,282.87081339712915 445.665071770335,312.04784688995215 563,330 C 680.334928229665,347.95215311004785 797.244019138756,354.67942583732054 885,355 C 972.755980861244,355.32057416267946 1031.358851674641,349.2344497607656 1119,339 C 1206.641148325359,328.7655502392344 1323.3205741626793,314.38277511961724 1440,300 C 1440,300 1440,600 1440,600 Z" stroke="none" stroke-width="0" fill="#ff7f5088" class="transition-all duration-300 ease-in-out delay-150"></path><path d="M 0,600 C 0,600 0,450 0,450 C 87.65550239234452,460.97607655502395 175.31100478468903,471.95215311004785 280,474 C 384.68899521531097,476.04784688995215 506.4114832535885,469.1674641148325 609,474 C 711.5885167464115,478.8325358851675 795.0430622009571,495.377990430622 879,483 C 962.9569377990429,470.622009569378 1047.4162679425838,429.32057416267946 1141,419 C 1234.5837320574162,408.67942583732054 1337.2918660287082,429.33971291866027 1440,450 C 1440,450 1440,600 1440,600 Z" stroke="none" stroke-width="0" fill="#ff7f50ff" class="transition-all duration-300 ease-in-out delay-150"></path></svg>